<svg xmlns="http://www.w3.org/2000/svg" xmlns:xlink="http://www.w3.org/1999/xlink" width="359" height="334" viewBox="0 0 359 334">
  <defs>
    <rect id="doctors-a" width="148" height="206" rx="74"/>
    <circle id="doctors-c" cx="36" cy="36" r="36"/>
  </defs>
  <g fill="none" fill-rule="evenodd">
    <g transform="translate(0 24)">
      <path fill="#F3F3F3" d="M91.5761719,303.082031 C54.3688852,288.603318 41.328125,283.847656 22.234375,258.298828 C9.50520833,241.266276 2.1875,220.666016 0.28125,196.498047 C2.20963542,170.494141 11.7408854,152.214844 28.875,141.660156 C54.5761719,125.828125 82.6738281,132.613281 82.6738281,91.25 C82.6738281,49.8867188 78.3144531,29.9707031 123.767578,9.6015625 C169.220703,-10.7675781 211.035156,9.6015625 226.103516,23.4394531 C240.042969,36.3554687 275.205078,78.59375 251.798828,119.173828 C228.392578,159.753906 212.339844,156.673828 221.708984,177.935547 C231.078125,199.197266 298.462891,217.814453 295.630859,254.990234 C293.742839,279.774089 279.960938,295.121094 254.285156,301.03125 C239.395833,305.854167 204.847005,308.265625 150.638672,308.265625 C137.111328,310.28125 117.423828,308.553385 91.5761719,303.082031 Z"/>
      <circle cx="254" cy="172" r="20" fill="#F4F4F4"/>
    </g>
    <g transform="translate(167)">
      <rect width="9" height="316" x="81" fill="#D8D8D8"/>
      <polygon fill="#D8D8D8" points="81.562 315.443 75 322.005 97.292 322.005 90.287 315"/>
      <rect width="151" height="5" x="10" fill="#D8D8D8"/>
      <path stroke="#D8D8D8" stroke-linecap="round" stroke-linejoin="round" stroke-width="5" d="M160,3 C161.180994,11.0365397 164.999355,13.163859 171.455084,9.38195801"/>
      <path stroke="#D8D8D8" stroke-linecap="round" stroke-linejoin="round" stroke-width="5" d="M0,3 C1.18099378,9.86806239 4.99935526,11.6860789 11.4550844,8.45404955" transform="matrix(-1 0 0 1 11.455 0)"/>
      <g transform="translate(152 30)">
        <path fill="#D8D8D8" d="M10,0 L30,0 C35.5228475,-1.01453063e-15 40,4.4771525 40,10 L40,41 C40,52.045695 31.045695,61 20,61 L20,61 C8.954305,61 1.3527075e-15,52.045695 0,41 L0,10 C-6.76353751e-16,4.4771525 4.4771525,-2.53818305e-15 10,-3.55271368e-15 Z"/>
        <rect width="9" height="3" x="15" y="60" fill="#D8D8D8" rx="1.5"/>
        <rect width="4" height="5" x="18" y="61" fill="#D8D8D8" rx="2"/>
        <rect width="40" height="8" y="12" fill="#E8E8E8"/>
      </g>
      <path stroke="#D8D8D8" d="M168.193359,7.9296875 L158.509766,30.8105469"/>
      <path stroke="#D8D8D8" stroke-linecap="round" stroke-linejoin="round" d="M171.113281,11.6679688 L183.449219,30.3417969"/>
    </g>
    <g transform="translate(57 13)">
      <g transform="translate(18 115)">
        <mask id="doctors-b" fill="#fff">
          <use xlink:href="#doctors-a"/>
        </mask>
        <use fill="#3AC1E3" xlink:href="#doctors-a"/>
        <ellipse cx="78" cy="-23.409" fill="#2FA9C8" mask="url(#doctors-b)" rx="39.333" ry="39.461"/>
      </g>
      <g transform="translate(55 55)">
        <mask id="doctors-d" fill="#fff">
          <use xlink:href="#doctors-c"/>
        </mask>
        <use fill="#E8C3AD" xlink:href="#doctors-c"/>
        <path fill="#D5B19B" d="M-23.3643801,-20.9527989 C-23.3643801,6.29324871 -0.978617555,28.3805344 26.6356199,28.3805344 C54.2498574,28.3805344 76.6356199,6.29324871 76.6356199,-20.9527989" mask="url(#doctors-d)" transform="rotate(51 26.636 3.714)"/>
      </g>
      <path fill="#14123D" d="M26,30 C26,57.0619527 48.3857625,79 76,79 C103.614237,79 126,57.0619527 126,30" transform="rotate(51 76 54.5)"/>
      <path stroke="#F5C49B" stroke-linecap="round" stroke-linejoin="round" stroke-width="19" d="M197,204 C181.270222,234.333333 155.936889,264.666667 121,295" transform="rotate(-48 159 249.5)"/>
      <rect width="33" height="59" x="129" y="142" fill="#0095BD" rx="16.5" transform="rotate(-19 145.5 171.5)"/>
      <path fill="#D8D8D8" d="M86.9039575,246 C88.3013192,251.386167 89,256.814727 89,262.285681 C89,268.148061 88.3013192,274.052834 86.9039575,280 L67,267.038801 L86.9039575,246 Z"/>
      <path stroke="#F5C49B" stroke-linecap="round" stroke-linejoin="round" stroke-width="19" d="M44.504762,187 C68.6577825,224.020691 76.2974092,247.763125 67.4236421,258.227302 C55.1094261,272.748544 48.7356833,272.478757 32,287" transform="rotate(129 51.5 237)"/>
      <rect width="33" height="59" x="13" y="141" fill="#0095BD" rx="16.5" transform="rotate(17 29.5 170.5)"/>
      <path fill="#FFF" d="M44.000095,235 L87,245.448535 C84.9895649,251.745783 83.9843474,257.780862 83.9843474,263.553773 C83.9843474,268.964684 84.9895649,274.113426 87,279 L31.0728752,266.611246 C30.7224242,260.877955 31.6359408,255.348982 33.8134249,250.024327 C35.9450141,244.8119 39.3405708,239.803791 44.000095,235 Z"/>
      <path stroke="#E1E1E1" stroke-linecap="round" stroke-linejoin="round" stroke-width="3" d="M68.0053647,120 C57.6596521,159.234533 51.05091,186.258613 48.1791386,201.072239 C38.5330752,250.83009 46.8466131,280.351961 60.2776163,281.93517 C63.4366073,282.307543 66.4001514,281.072764 69.2737611,278.308695 M85.2361365,244.512397 C88.4348035,235.802358 91.7604323,225.466017 95.3532235,213.603707 C100.166282,197.712443 106.381874,166.511208 114,120"/>
    </g>
  </g>
</svg>
