<svg xmlns="http://www.w3.org/2000/svg" xmlns:xlink="http://www.w3.org/1999/xlink" width="550" height="432" viewBox="0 0 550 432">
  <defs>
    <rect id="teacher-a" width="100" height="154" rx="50"/>
    <circle id="teacher-c" cx="27" cy="27" r="27"/>
    <ellipse id="teacher-d" cx="78" cy="7.5" rx="4" ry="3.5"/>
    <circle id="teacher-e" cx="78" cy="22" r="4"/>
    <circle id="teacher-f" cx="78" cy="37" r="4"/>
    <linearGradient id="teacher-g" x1="50%" x2="50%" y1="-111.024%" y2="100%">
      <stop offset="0%" stop-color="#FFC47D"/>
      <stop offset="100%" stop-color="#FFDC83" stop-opacity="0"/>
    </linearGradient>
  </defs>
  <g fill="none" fill-rule="evenodd">
    <g transform="translate(215 61)">
      <rect width="293" height="142" fill="#D8D8D8"/>
      <rect width="274" height="126" x="9" y="8" fill="#F3F3F3"/>
    </g>
    <g transform="translate(154 96)">
      <g transform="translate(24 63)">
        <mask id="teacher-b" fill="#fff">
          <use xlink:href="#teacher-a"/>
        </mask>
        <use fill="#1FB362" xlink:href="#teacher-a"/>
        <circle cx="54.5" cy="-17.5" r="29.5" fill="#000" fill-opacity=".103" mask="url(#teacher-b)"/>
      </g>
      <g transform="translate(48 18)">
        <use fill="#E8C3AD" xlink:href="#teacher-c"/>
      </g>
      <path fill="#14123D" d="M58.5292969,36.8775228 C68.6463948,40.000595 76.496108,41.0260562 82.0784364,39.9539066 C82.7726396,39.820577 83.2966436,28.6304709 83.9980469,28.4609375 C84.7548577,28.2780118 85.689659,39.1126858 86.4548524,38.8876106 C88.3111217,38.3416044 90.1920563,37.6715751 92.0976562,36.8775228 L92.0976562,76 C104.623698,66.8973542 110.630208,52.5870222 110.117187,33.0690039 C109.604167,13.5509856 98.8938802,2.68875868 77.9863281,0.482323045 C51.141276,-0.0202051233 38.3177083,10.8420218 39.515625,33.0690039 C40.7135417,55.295986 47.0514323,68.3836948 58.5292969,72.3321304 L58.5292969,36.8775228 Z"/>
      <path stroke="#F5C49B" stroke-linecap="round" stroke-linejoin="round" stroke-width="19" d="M69.9803368,112.159864 C56.4012903,129.285942 44.6345248,141.199513 34.6800403,147.900577 C19.7483134,157.952172 23.4186314,154.547911 10.3020409,165.894443" transform="rotate(132 40.141 139.027)"/>
      <path stroke="#F5C49B" stroke-linecap="round" stroke-linejoin="round" stroke-width="19" d="M109.368111,92.9715968 C138.686579,99.7961443 148.708899,107.383514 139.435071,115.733707 C125.524329,128.258995 117.018804,135.917404 112.673148,139.83025" transform="rotate(122 126.073 116.4)"/>
    </g>
    <g transform="translate(0 268)">
      <rect width="421" height="25" fill="#AD7758" rx="6"/>
      <rect width="18" height="140" x="23" y="24" fill="#9B674E"/>
      <rect width="18" height="140" x="373" y="24" fill="#9B674E"/>
      <rect width="333" height="140" x="40" y="24" fill="#AD7758"/>
      <rect width="368" height="14" x="23" y="24" fill="#000" fill-opacity=".041"/>
    </g>
    <g transform="translate(70 163)">
      <rect width="120" height="85" x="7" fill="#CDE5EE" rx="8"/>
      <rect width="120" height="85" fill="#A7CBD7" rx="8"/>
      <path fill="#88B5C3" d="M51.6127484,32 L69.4993403,32 C74.7970261,32 79.1754403,36.1315621 79.4825259,41.4203401 L82.6928533,96.7101701 C82.852922,99.4669506 80.7478711,101.831524 77.9910905,101.991593 C77.8945821,101.997196 77.7979315,102 77.7012606,102 L41.4856432,102 C38.7242194,102 36.4856432,99.7614237 36.4856432,97 C36.4856432,96.8456992 36.4927858,96.6914811 36.5070481,96.5378408 L41.6555582,41.0756816 C42.1329439,35.9330603 46.4480169,32 51.6127484,32 Z"/>
      <path fill="#CEE5EE" d="M49.6584126,31 L67.4697249,31 C72.7794894,31 77.163475,35.1498027 77.4546751,40.4515762 L80.7103137,99.7257881 C80.8617567,102.483056 78.7493183,104.841032 75.9920505,104.992475 C75.9007325,104.997491 75.8092942,105 75.7178386,105 L39.4582973,105 C36.6968736,105 34.4582973,102.761424 34.4582973,100 C34.4582973,99.8539987 34.4646922,99.7080674 34.4774637,99.5626258 L39.6967454,40.1252516 C40.1501992,34.961302 44.4745921,31 49.6584126,31 Z"/>
      <circle cx="58" cy="51" r="8" fill="#A7CBD7"/>
      <rect width="36" height="6" x="74" y="99" fill="#CEE5EE" rx="3"/>
    </g>
    <g stroke="#D8D8D8" transform="translate(322 98)">
      <circle cx="39.5" cy="40.5" r="39.5" stroke-width="5"/>
      <polyline stroke-width="4" points="39.519 .783 39.519 39.614 76.404 25.479"/>
    </g>
    <path stroke="#979797" stroke-linecap="round" stroke-linejoin="round" stroke-width="3" d="M307.5,206.5 L372.06005,141.93995"/>
    <g transform="translate(302 223)">
      <rect width="86" height="15" fill="#BCDA59" rx="2"/>
      <use fill="#FFF" xlink:href="#teacher-d"/>
      <ellipse cx="78" cy="7.5" stroke="#000" stroke-opacity=".249" rx="4.5" ry="4"/>
      <rect width="86" height="15" y="15" fill="#FAC748" rx="2"/>
      <rect width="86" height="15" y="30" fill="#E87A9C" rx="2"/>
      <use fill="#FFF" xlink:href="#teacher-e"/>
      <circle cx="78" cy="22" r="4.5" stroke="#000" stroke-opacity=".249"/>
      <g>
        <use fill="#FFF" xlink:href="#teacher-f"/>
        <circle cx="78" cy="37" r="4.5" stroke="#000" stroke-opacity=".249"/>
      </g>
    </g>
    <g transform="translate(483 132)">
      <rect width="23" height="14" x="20" y="5" fill="#D8D8D8" rx="7"/>
      <rect width="8" height="220" x="28" fill="#D8D8D8"/>
      <path stroke="#D8D8D8" stroke-width="5" d="M0,235.5 C0,226.939586 6.93958638,220 15.5,220 L48.5,220 C57.0604136,220 64,226.939586 64,235.5"/>
    </g>
    <g transform="translate(25)">
      <rect width="5" height="56" x="46" fill="#0181BC" rx="2.5"/>
      <path fill="#009FDB" d="M80,85.5 C80,68.1030304 65.8969696,54 48.5,54 C31.1030304,54 17,68.1030304 17,85.5"/>
      <polygon fill="url(#teacher-g)" points="19.867 87 0 121.832 93.734 121.832 77.059 87"/>
    </g>
    <g transform="translate(445 74)">
      <rect width="19" height="19" x="3" y="28" fill="#C8DF80" transform="rotate(15 12.5 37.5)"/>
      <rect width="21" height="21" x="25.958" y="2.958" fill="#F9D885" transform="rotate(-20 36.458 13.458)"/>
      <rect width="20" height="20" x="3" y="3" fill="#FFB0C8"/>
      <rect width="20" height="20" x="24" y="37" fill="#FFB0C8" transform="rotate(-15 34 47)"/>
    </g>
  </g>
</svg>
